<svg width="156" height="80" viewBox="0 0 156 80" fill="none" xmlns="http://www.w3.org/2000/svg">
<path d="M74.7171 19.7714C74.6787 17.9668 73.7796 17.2469 72.7878 17.4293C72.0679 17.5637 71.5112 18.5972 70.8809 19.2275C71.5784 19.8706 72.1991 20.8528 73.0022 21.0352C73.5205 21.1568 74.3044 20.1009 74.7171 19.7714Z" fill="white"/>
<path d="M79.5614 25.2074C81.1771 23.2365 82.8985 21.1696 84.5847 19.0739C85.4453 18.0052 86.4148 17.6565 87.5891 18.5203C88.6353 19.2914 88.9809 20.2737 88.5073 21.5631C87.5698 24.1259 86.6996 26.7112 85.8165 29.2932C85.6789 29.6995 85.6117 30.1315 85.6789 30.6114C89.0064 25.4442 92.1708 20.2225 94.0137 13.9098C91.934 14.3673 90.0943 14.7065 88.2897 15.1832C85.3622 15.9543 82.4666 16.8534 79.5358 17.6117C78.9023 17.7748 78.0544 17.7908 77.5297 17.4901C76.9761 17.1733 76.5634 16.431 76.3618 15.7879C76.2978 15.5863 77.0625 14.8952 77.5297 14.7897C81.1228 13.9834 84.7286 13.2315 88.3441 12.534C90.4078 12.134 92.5067 11.9229 94.5609 11.4941C94.996 11.4045 95.4311 10.7966 95.6615 10.3263C97.0213 7.53629 98.3107 4.71749 99.6449 1.91469C99.8465 1.49235 100.074 0.970823 100.438 0.762853C100.896 0.506889 101.574 0.340512 102.041 0.490891C102.397 0.609274 102.825 1.31637 102.774 1.70352C102.646 2.67298 102.355 3.64884 101.968 4.55431C101.123 6.52523 100.176 8.45136 99.1618 10.6335C101.651 10.3775 103.897 10.1855 106.137 9.90716C109.138 9.53281 112.13 9.08807 115.128 8.68813C116.427 8.51535 117.764 8.49936 119.028 8.1826C120.413 7.83385 121.165 8.1634 121.402 9.5968C121.555 10.5343 120.698 11.5101 119.521 11.5485C117.927 11.6029 116.331 11.5069 114.737 11.5741C112.331 11.6733 109.925 11.7981 107.525 12.0125C105.151 12.2236 102.793 12.598 100.419 12.8315C98.829 12.9883 97.6612 13.4778 97.1205 15.2024C95.8247 19.3394 94.3849 23.4316 93.2266 27.6454C96.0646 25.2522 96.9029 21.3327 100.355 18.8755C100.285 19.8833 100.419 20.552 100.176 21.0288C98.5283 24.2539 96.9061 27.5015 95.0568 30.6114C94.0681 32.272 90.6446 31.6129 89.7103 29.7251C89.5728 29.45 89.4768 29.1556 89.2816 28.6789C88.2897 30.1379 87.4163 31.4529 86.5172 32.7455C85.1958 34.6396 83.3944 34.4861 82.3098 32.4448C81.5515 31.0178 81.6059 29.6196 82.2106 28.1798C82.5146 27.4535 82.7993 26.7176 83.0937 25.9849C83.3848 25.2586 83.6792 24.5355 83.7368 23.6588C82.8697 24.9386 81.9418 26.1864 81.1484 27.5111C79.7502 29.8403 78.4671 32.24 77.0625 34.5661C76.5314 35.4491 75.7571 36.2298 74.5669 35.7755C73.4278 35.3403 73.2359 34.3549 73.4278 33.267C73.527 32.7039 73.6838 32.1536 73.5206 31.4497C72.7239 32.6463 71.9433 33.8558 71.1274 35.0396C69.7612 37.0169 68.2318 37.8072 66.648 37.1129C65.8385 36.7609 65.2274 35.9515 64.4915 35.318C63.0517 36.553 62.735 39.4966 59.993 39.3206C58.8859 39.2502 57.8333 38.3159 56.6078 37.7016C55.9007 38.6935 55.0337 40.1109 53.9618 41.3523C52.65 42.8689 51.5686 42.9585 49.9272 41.9986C48.6634 41.2595 47.9179 39.7909 48.5834 38.3095C49.9336 35.2988 51.5621 32.4128 53.0787 29.4788C53.2195 29.21 53.3955 28.9573 53.5555 28.6981C53.4819 28.5669 53.4115 28.4357 53.3379 28.3045C51.1526 29.2036 48.9705 30.0995 46.734 31.021C48.7881 34.0573 47.6587 37.3977 44.9295 40.4692C40.3061 45.6781 34.7261 49.6615 28.4934 52.7331C27.6999 53.1234 26.8425 53.5778 25.9978 53.6162C25.0795 53.6577 23.8573 53.5234 23.3006 52.9506C22.843 52.4771 22.8782 51.1365 23.1822 50.3782C24.3948 47.3674 26.5385 45.0446 29.0118 42.9713C31.7378 40.6836 34.355 38.2615 37.0426 35.9259C38.396 34.7516 39.8006 33.635 41.2916 32.4C39.1351 31.6513 37.1002 32.3808 35.1357 32.8575C26.6857 34.918 18.6836 38.2743 10.6336 41.4963C8.15711 42.4881 5.64227 43.4 3.10183 44.2127C2.02998 44.555 0.670172 44.5198 0.183841 43.3392C-0.136114 42.5649 -0.0273291 41.2915 0.423807 40.5844C1.63643 38.6839 2.91305 36.713 4.56402 35.2156C14.3418 26.3496 25.3707 19.333 37.2634 13.6698C39.4263 12.6396 41.7875 12.0253 44.0528 11.1998C45.307 10.7422 46.4077 10.9918 47.1564 12.0636C47.9339 13.1771 47.8123 14.4729 46.974 15.452C45.4542 17.2245 43.848 18.9427 42.1299 20.5232C40.1814 22.3214 38.1049 23.9884 36.0188 25.6265C34.5982 26.7432 33.6639 26.5128 32.4385 24.9322C36.2811 21.6623 40.127 18.3892 44.2832 14.8537C35.4044 14.9528 7.95554 33.3086 3.09223 41.5571C6.18619 40.3124 9.00819 39.2182 11.795 38.0504C19.2051 34.9436 26.6377 31.8464 34.5598 30.3171C37.2634 29.7955 40.1142 30.0355 42.8978 29.9075C43.3329 29.8883 43.7777 29.8179 44.1904 29.6803C48.5546 28.215 52.8932 26.6728 57.2925 25.313C58.0348 25.0826 59.0171 25.6265 60.041 25.8473C60.1113 25.7417 60.3225 25.0634 60.7704 24.8138C61.3624 24.4843 62.2326 24.2187 62.8214 24.4171C63.6724 24.7019 63.954 25.4633 63.5285 26.484C62.4406 29.098 61.4647 31.7601 60.4761 34.4125C60.3225 34.822 60.3225 35.2892 60.2521 35.7275C60.3737 35.7915 60.4985 35.8523 60.6201 35.9163C62.0023 34.0861 63.5573 32.3552 64.7251 30.397C66.0369 28.1926 66.9776 25.7705 68.1294 23.4668C68.5965 22.5294 69.0861 21.3871 70.4843 21.9758C71.7801 22.523 72.0296 23.5404 71.4057 25.0218C70.4075 27.3927 69.406 29.7603 68.4494 32.1472C68.283 32.5567 68.3182 33.0495 68.2606 33.5038C68.4334 33.5998 68.6061 33.6958 68.7821 33.7918C70.1067 31.824 71.4921 29.8947 72.7399 27.879C74.1541 25.6009 75.45 23.2493 76.7938 20.9264C77.2705 20.1041 77.9744 19.5794 78.8895 19.9537C79.8269 20.3377 80.3869 21.1216 80.1693 22.2414C79.9581 23.2685 79.7469 24.2891 79.5614 25.2074ZM26.5065 50.1574C26.6281 50.3046 26.7465 50.4518 26.8681 50.599C28.599 49.8791 30.5123 49.4247 32.0257 48.3849C34.9341 46.382 37.7593 44.2063 40.3285 41.7938C41.8611 40.3572 42.9266 38.3831 44.0368 36.5498C44.7503 35.3691 44.9103 34.0509 43.4801 33.0879C37.0618 38.044 30.4995 42.8561 26.5065 50.1574ZM58.2652 29.2964C55.3184 31.9392 53.1299 35.0684 52.1125 38.9462C54.7073 36.0794 57.123 33.0975 58.2652 29.2964Z" fill="black"/>
<path d="M48.2859 46.5645C45.5598 48.5002 42.5683 50.1544 40.1622 52.4293C33.9071 58.342 27.9911 64.5939 23.355 71.9209C22.5615 73.1719 21.5025 74.5701 22.5519 75.9555C23.5662 77.2929 25.1147 76.3587 26.3914 76.0355C30.7651 74.9253 34.451 72.4456 37.8073 69.6108C42.1459 65.9473 46.3053 62.0503 50.3208 58.0381C51.7606 56.6015 52.4005 54.397 53.7059 52.7876C54.8833 51.335 56.3359 50.004 57.9101 49.0058C59.7434 47.8443 60.3481 48.1291 61.5512 49.7896C62.1495 48.8394 62.7606 47.9499 63.2853 47.0092C63.89 45.9246 64.9235 45.7966 65.6946 46.3629C66.1201 46.6765 66.2417 47.8987 66.0113 48.5322C64.8883 51.6198 63.5989 54.6498 62.3703 57.6989C62.5206 57.7917 62.6678 57.8845 62.8182 57.9773C64.0628 56.4415 65.5058 55.0209 66.5073 53.3411C67.9023 51.0023 68.8621 48.4042 70.2315 46.0462C70.8746 44.9391 71.9497 44.0017 73.0215 43.2722C73.4023 43.013 74.5253 43.4034 74.9829 43.8417C75.2996 44.1457 75.0724 45.0351 75.0501 45.6622C75.0469 45.7934 74.8997 45.9502 74.7781 46.0462C72.4392 47.8987 72.9224 50.1512 73.9846 52.794C74.8869 51.5942 75.7284 50.5639 76.4706 49.4633C77.8401 47.4284 79.0815 45.3071 80.5149 43.3202C81.2124 42.3539 82.153 41.5156 83.1321 40.8341C83.4777 40.5942 84.4983 40.8085 84.8023 41.1637C85.2022 41.634 85.5574 42.6547 85.311 43.077C84.5143 44.4464 82.8857 45.3199 83.2057 47.31C83.4585 48.8778 83.5097 50.4743 83.6984 52.6244C85.1702 50.5415 86.4756 48.8778 87.5763 47.0892C88.9009 44.9391 90.0911 42.7027 91.2525 40.4598C91.7709 39.4583 92.35 38.6232 93.5338 39.2375C94.6377 39.8103 94.7913 40.9301 94.3049 42.0052C93.457 43.8673 92.4396 45.6558 91.6205 47.5308C90.8142 49.3769 90.1615 51.2934 89.4416 53.1812C89.6528 53.29 89.8639 53.3955 90.0719 53.5043C92.19 50.3784 94.3753 47.2972 96.4006 44.1137C97.6452 42.1555 98.6339 40.031 99.7601 37.9961C100.269 37.0747 100.71 35.958 102.141 36.7931C103.392 37.5258 103.568 38.5336 102.956 39.7591C102.093 41.4996 101.158 43.2082 100.358 44.9775C99.6002 46.6573 98.9795 48.3978 98.298 50.1128C98.4899 50.212 98.6787 50.3144 98.8707 50.4136C100.605 47.7291 102.397 45.0799 104.06 42.3507C105.321 40.2838 106.502 38.1593 107.557 35.9804C108.124 34.8094 108.85 34.2942 110.04 34.707C110.975 35.0301 111.215 36.5499 110.728 37.737C109.391 40.9909 108.095 44.2608 106.799 47.5276C106.687 47.8091 106.694 48.1387 106.972 48.673C107.839 47.5596 108.863 46.5357 109.541 45.3199C111.327 42.1171 112.907 38.796 114.686 35.5901C115.368 34.3646 116.228 33.1456 117.287 32.2593C117.796 31.8338 119.114 31.901 119.793 32.2593C120.871 32.8289 120.372 33.7599 119.722 34.515C119.447 34.835 119.249 35.2221 118.973 35.5421C117.402 37.3626 117.159 39.3559 118.167 41.6084C120.186 40.8309 122.135 39.9286 124.169 39.3271C129.394 37.7818 134.632 36.246 139.921 34.947C144.151 33.9071 148.467 33.2192 152.745 32.3873C154.68 32.013 155.359 32.3617 155.938 33.9775C156.299 34.9886 155.01 36.5915 154.002 36.2396C150.636 35.0653 147.385 36.0636 144.103 36.5979C143.13 36.7547 142.148 36.8603 141.178 37.0331C134.501 38.2169 128.243 40.7669 121.891 43.0066C121.152 43.269 120.439 43.6817 119.812 44.1521C119.485 44.3952 119.149 44.9583 119.204 45.3199C119.729 48.7754 118.855 50.8295 116.023 52.5381C113.486 54.0706 111.243 53.8467 108.578 51.799C108.498 51.7382 108.389 51.7126 108.293 51.671C105.177 53.8947 103.638 53.4275 102.525 49.6809C101.923 50.5767 101.481 51.3926 100.89 52.0741C100.102 52.9764 99.3122 53.9587 98.3172 54.573C96.6086 55.632 94.9416 54.605 94.8136 52.5956C94.7785 52.0581 94.7081 51.5206 94.2985 50.9351C93.4986 52.1637 92.6348 53.3539 91.9117 54.6274C91.1854 55.9104 90.1519 57.0142 88.7409 56.8702C87.1635 56.7071 86.2325 55.4528 86.1173 53.7571C86.1013 53.5043 85.9381 53.2644 86.2389 53.4691C84.7063 54.7457 83.1161 55.9584 81.6571 57.3086C79.4238 59.3755 75.7412 59.5835 73.2743 57.5166C71.1914 60.8697 68.4398 62.0631 64.8243 59.7466C63.5733 60.6745 62.7414 62.6646 60.8025 61.9671C59.9002 61.644 59.3051 60.4729 58.4956 59.6059C57.9261 60.4153 57.0686 61.5384 56.3103 62.7254C55.616 63.8133 54.7521 64.7603 53.4275 64.6195C51.9013 64.4564 50.9191 63.3845 50.3976 61.9383C50.3112 61.6984 50.2824 61.4392 50.1928 61.0457C48.9418 62.1303 47.7611 63.1414 46.5965 64.1652C44.424 66.0785 42.2163 67.9535 40.0982 69.9244C36.0796 73.6679 31.3635 76.3683 26.6793 79.1295C25.5371 79.8014 21.9056 79.4974 20.8945 78.5312C19.5347 77.2321 19.1188 75.5428 19.9891 73.8982C21.3361 71.3482 22.6159 68.6574 24.4748 66.5041C29.8533 60.2778 35.4685 54.2498 41.0837 48.2283C42.6707 46.5261 44.52 45.0511 46.3565 43.6081C47.0572 43.0578 48.0363 42.6899 48.9258 42.5907C51.1111 42.3507 52.5509 44.0081 51.8022 46.0622C50.8135 48.7754 49.5433 51.3862 48.3307 54.013C47.8475 55.0593 47.2748 56.0832 46.5933 57.0078C46.3245 57.3694 45.3647 57.7149 45.2047 57.5645C44.8144 57.187 44.4048 56.4255 44.5392 55.984C44.9711 54.5858 45.6206 53.2516 46.2349 51.9141C46.9996 50.2504 47.8155 48.6058 48.609 46.9549C48.513 46.8301 48.401 46.6957 48.2859 46.5645ZM79.5742 48.6378C77.9168 51.0535 76.4035 53.2612 74.8165 55.5744C78.8703 56.2495 80.902 53.2036 79.5742 48.6378ZM54.0514 60.8089C56.2559 59.4523 60.4569 53.5075 60.6969 51.4086C55.7792 55.7312 53.7987 58.534 54.0514 60.8089ZM109.516 50.0744C111.669 51.1367 113.038 50.2696 114.321 49.4313C115.396 48.7306 115.889 47.646 115.47 46.0622C113.547 47.3612 111.701 48.6026 109.516 50.0744ZM69.6428 51.3638C68.3982 53.5811 67.3232 55.4944 66.1873 57.5166C69.4924 57.8109 71.025 55.0881 69.6428 51.3638Z" fill="black"/>
<path d="M109.775 60.6008C108.092 60.7864 106.412 61.0391 104.726 61.1319C103.046 61.2247 101.341 60.9911 99.6801 61.1991C98.1315 61.3943 96.6501 61.9414 95.0311 61.5319C94.3336 61.3559 93.8985 62.1974 92.9674 62.2646C90.1678 62.4629 87.4066 63.2532 84.6358 63.8291C83.4072 64.0851 82.1818 64.3507 80.9691 64.6546C78.8286 65.1921 76.6849 65.7137 74.5668 66.328C70.7018 67.4478 66.8527 68.6157 63.0069 69.8027C62.1078 70.0811 61.2503 70.4874 60.3865 70.8649C59.1514 71.4025 58.2619 70.8297 57.7724 69.8219C57.2765 68.798 57.7916 67.9278 58.8699 67.6142C62.6869 66.4976 66.4848 65.2657 70.3594 64.3923C77.5296 62.7829 84.7286 61.2791 91.9596 59.9577C96.7237 59.0874 101.561 58.6139 106.367 57.9484C107.724 57.7596 109.071 57.4652 110.434 57.3309C111.947 57.1805 112.737 57.8204 112.734 59.0234C112.731 60.0441 111.646 60.86 110.427 60.7576C110.216 60.7384 110.005 60.716 109.794 60.6936C109.784 60.668 109.778 60.6328 109.775 60.6008Z" fill="black"/>
<path d="M74.7171 19.7714C74.3044 20.101 73.5205 21.1536 73.0022 21.0384C72.1991 20.8561 71.5784 19.8738 70.8809 19.2307C71.5112 18.5972 72.0647 17.5637 72.7878 17.4325C73.7765 17.247 74.6755 17.9701 74.7171 19.7714Z" fill="black"/>
<path d="M92.6441 35.6858C92.9225 35.4235 93.5144 34.8668 94.1031 34.3132C94.663 34.9883 95.5077 35.5994 95.6805 36.3641C95.7861 36.8185 94.855 37.9863 94.3655 37.9991C93.4952 38.0215 92.481 37.5352 92.6441 35.6858Z" fill="black"/>
</svg>
